<?xml version="1.0" encoding="UTF-8" standalone="no"?>
<!DOCTYPE svg PUBLIC "-//W3C//DTD SVG 1.1//EN"
 "http://www.w3.org/Graphics/SVG/1.1/DTD/svg11.dtd">
<!-- Generated by graphviz version 12.0.0 (20240704.0754)
 -->
<!-- Title: MenuStateMachine Pages: 1 -->
<svg width="631pt" height="385pt"
 viewBox="0.00 0.00 631.00 384.75" xmlns="http://www.w3.org/2000/svg" xmlns:xlink="http://www.w3.org/1999/xlink">
<g id="graph0" class="graph" transform="scale(1 1) rotate(0) translate(4 380.75)">
<title>MenuStateMachine</title>
<polygon fill="white" stroke="none" points="-4,4 -4,-380.75 627,-380.75 627,4 -4,4"/>
<g id="clust1" class="cluster">
<title>cluster_0</title>
<polygon fill="none" stroke="black" stroke-dasharray="5,2" points="178,-8 178,-259.25 528,-259.25 528,-8 178,-8"/>
<text text-anchor="middle" x="353" y="-241.95" font-family="Times New Roman,serif" font-size="14.00">Estados</text>
</g>
<g id="clust2" class="cluster">
<title>cluster_1</title>
<polygon fill="none" stroke="black" stroke-dasharray="5,2" points="8,-183.5 8,-368.75 170,-368.75 170,-183.5 8,-183.5"/>
<text text-anchor="middle" x="89" y="-351.45" font-family="Times New Roman,serif" font-size="14.00">Otros estados</text>
</g>
<!-- Home -->
<g id="node1" class="node">
<title>Home</title>
<polygon fill="lightblue" stroke="lightblue" points="316.5,-227.5 201.5,-227.5 201.5,-191.5 316.5,-191.5 316.5,-227.5"/>
<text text-anchor="middle" x="259" y="-204.07" font-family="Times New Roman,serif" font-size="14.00">Home (index = 0)</text>
</g>
<!-- Timer -->
<g id="node2" class="node">
<title>Timer</title>
<polygon fill="lightblue" stroke="lightblue" points="384.13,-139.75 269.88,-139.75 269.88,-103.75 384.13,-103.75 384.13,-139.75"/>
<text text-anchor="middle" x="327" y="-116.33" font-family="Times New Roman,serif" font-size="14.00">Timer (index = 1)</text>
</g>
<!-- Home&#45;&gt;Timer -->
<g id="edge1" class="edge">
<title>Home&#45;&gt;Timer</title>
<path fill="none" stroke="black" d="M254.24,-191.29C252.37,-180.85 251.91,-167.66 258,-157.75 260.49,-153.69 263.61,-150.09 267.15,-146.89"/>
<polygon fill="black" stroke="black" points="268.98,-149.89 274.83,-141.05 264.75,-144.32 268.98,-149.89"/>
<text text-anchor="middle" x="282" y="-160.2" font-family="Times New Roman,serif" font-size="14.00">Button 2</text>
</g>
<!-- Power -->
<g id="node3" class="node">
<title>Power</title>
<polygon fill="lightblue" stroke="lightblue" points="519.63,-139.75 402.38,-139.75 402.38,-103.75 519.63,-103.75 519.63,-139.75"/>
<text text-anchor="middle" x="461" y="-116.33" font-family="Times New Roman,serif" font-size="14.00">Power (index = 2)</text>
</g>
<!-- Home&#45;&gt;Power -->
<g id="edge2" class="edge">
<title>Home&#45;&gt;Power</title>
<path fill="none" stroke="black" d="M282.62,-191.06C301.91,-176.87 326.41,-158.98 329,-157.75 332.2,-156.23 361.1,-148.52 391.05,-140.73"/>
<polygon fill="black" stroke="black" points="391.82,-144.14 400.62,-138.24 390.06,-137.37 391.82,-144.14"/>
<text text-anchor="middle" x="353" y="-160.2" font-family="Times New Roman,serif" font-size="14.00">Button 3</text>
</g>
<!-- Timer_msg -->
<g id="node4" class="node">
<title>Timer_msg</title>
<polygon fill="lightblue" stroke="lightblue" points="365.5,-52 220.5,-52 220.5,-16 365.5,-16 365.5,-52"/>
<text text-anchor="middle" x="293" y="-28.57" font-family="Times New Roman,serif" font-size="14.00">Timer_msg (index = 3)</text>
</g>
<!-- Timer&#45;&gt;Timer_msg -->
<g id="edge7" class="edge">
<title>Timer&#45;&gt;Timer_msg</title>
<path fill="none" stroke="black" d="M320.12,-103.4C315.51,-91.77 309.34,-76.22 304.05,-62.88"/>
<polygon fill="black" stroke="black" points="307.37,-61.74 300.43,-53.73 300.86,-64.32 307.37,-61.74"/>
<text text-anchor="middle" x="368.5" y="-72.45" font-family="Times New Roman,serif" font-size="14.00">Button 2 o Button 3</text>
</g>
<!-- Power&#45;&gt;Home -->
<g id="edge9" class="edge">
<title>Power&#45;&gt;Home</title>
<path fill="none" stroke="black" d="M429.68,-140.08C420.07,-145.58 409.51,-151.78 400,-157.75 389.51,-164.34 388.19,-168.17 377,-173.5 361.49,-180.89 344.09,-187.08 327.5,-192.11"/>
<polygon fill="black" stroke="black" points="326.83,-188.66 318.21,-194.82 328.79,-195.38 326.83,-188.66"/>
<text text-anchor="middle" x="424" y="-160.2" font-family="Times New Roman,serif" font-size="14.00">Button 1</text>
</g>
<!-- Debug_msg -->
<g id="node6" class="node">
<title>Debug_msg</title>
<polygon fill="lightblue" stroke="lightblue" points="161.5,-337 16.5,-337 16.5,-301 161.5,-301 161.5,-337"/>
<text text-anchor="middle" x="89" y="-313.57" font-family="Times New Roman,serif" font-size="14.00">Debug msg (index = 4)</text>
</g>
<!-- Power&#45;&gt;Debug_msg -->
<g id="edge3" class="edge">
<title>Power&#45;&gt;Debug_msg</title>
<path fill="none" stroke="red" d="M459.61,-139.98C458.07,-150.44 454.82,-163.62 448,-173.5 410.33,-228.03 386.3,-231.75 326,-259.25 277.54,-281.35 219.56,-295.91 173.08,-305"/>
<polygon fill="red" stroke="red" points="172.48,-301.55 163.31,-306.86 173.79,-308.43 172.48,-301.55"/>
<text text-anchor="middle" x="531.5" y="-204.07" font-family="Times New Roman,serif" font-size="14.00" fill="red">Button 1 = rising &amp; Button 2 = 0</text>
</g>
<!-- Timer_msg&#45;&gt;Home -->
<g id="edge8" class="edge">
<title>Timer_msg&#45;&gt;Home</title>
<path fill="none" stroke="black" d="M261.97,-52.3C244.04,-64.19 223.09,-81.78 213,-103.75 200.73,-130.48 218.05,-161.34 234.83,-182.6"/>
<polygon fill="black" stroke="black" points="232.08,-184.77 241.17,-190.21 237.45,-180.29 232.08,-184.77"/>
<text text-anchor="middle" x="237" y="-116.33" font-family="Times New Roman,serif" font-size="14.00">Button 1</text>
</g>
<!-- Debug -->
<g id="node5" class="node">
<title>Debug</title>
<polygon fill="lightblue" stroke="lightblue" points="136.25,-227.5 25.75,-227.5 25.75,-191.5 136.25,-191.5 136.25,-227.5"/>
<text text-anchor="middle" x="81" y="-204.07" font-family="Times New Roman,serif" font-size="14.00">Debug (index=5)</text>
</g>
<!-- Debug&#45;&gt;Home -->
<g id="edge6" class="edge">
<title>Debug&#45;&gt;Home</title>
<path fill="none" stroke="black" d="M136.34,-209.5C153.26,-209.5 172.07,-209.5 189.78,-209.5"/>
<polygon fill="black" stroke="black" points="189.71,-213 199.71,-209.5 189.71,-206 189.71,-213"/>
<text text-anchor="middle" x="168.88" y="-214.95" font-family="Times New Roman,serif" font-size="14.00">Button 1</text>
</g>
<!-- Debug_msg&#45;&gt;Home -->
<g id="edge5" class="edge">
<title>Debug_msg&#45;&gt;Home</title>
<path fill="none" stroke="green" d="M116.31,-300.73C144.98,-282.6 190.22,-254 222.05,-233.86"/>
<polygon fill="green" stroke="green" points="223.61,-237.02 230.19,-228.72 219.87,-231.1 223.61,-237.02"/>
<text text-anchor="middle" x="192" y="-269.7" font-family="Times New Roman,serif" font-size="14.00" fill="green">Button 3</text>
</g>
<!-- Debug_msg&#45;&gt;Debug -->
<g id="edge4" class="edge">
<title>Debug_msg&#45;&gt;Debug</title>
<path fill="none" stroke="black" d="M87.71,-300.73C86.48,-284.12 84.59,-258.7 83.13,-239.07"/>
<polygon fill="black" stroke="black" points="86.63,-238.95 82.39,-229.24 79.65,-239.47 86.63,-238.95"/>
<text text-anchor="middle" x="110" y="-269.7" font-family="Times New Roman,serif" font-size="14.00">Button 2</text>
</g>
</g>
</svg>
